<svg width="456" height="805" viewBox="0 0 456 805" fill="none" xmlns="http://www.w3.org/2000/svg">
<path d="M-0.55669 72.9674C-0.556691 69.7267 -1.54561 66.5219 -2.31114 63.3489C-3.17911 59.7512 -3.60084 54.2698 -1.25191 47.5703C-0.927225 46.6443 -0.4753 45.7307 0.0410698 44.8962C22.4769 8.63906 62.5379 41.615 62.5379 41.615L34.9 43.4291L77.4576 80.1522L93.3049 103.764C112.579 132.481 118.843 124.128 124.648 88.1973C129.281 59.5197 129.617 18.5108 141.557 12.5807C184.821 -8.906 142.334 144.491 178.575 150.756C217.972 157.567 197.227 -5.41064 231.712 0.138597C266.198 5.68784 227.258 158.06 265.149 159.662C308.531 161.497 276.723 20.3096 312.095 8.71623C335.569 1.02257 336.249 124.351 336.249 124.351C336.249 124.351 388.184 115.39 367.281 61.2899C367.281 61.2899 358.86 34.9244 373.749 27.5295C386.97 20.9637 403.483 38.2123 407.02 42.1623C407.492 42.6893 407.897 43.2316 408.283 43.8076C410.156 46.5979 416.15 55.5285 419.731 60.8633L456 114.903L456 805L-0.55668 805L-0.55669 72.9674Z" fill="#FFECB8"/>
</svg>
