<svg width="116" height="91" viewBox="0 0 116 91" fill="none" xmlns="http://www.w3.org/2000/svg">
<g filter="url(#filter0_d_281_167)">
<path d="M59.9846 0C25.4475 0 7.56324 25.9576 4.44908 45.3881C1.5743 63.3249 13.2816 77.8632 17.4338 72.6631C18.7363 71.0318 20.0289 69.0299 20.0289 69.0299C17.4338 67.4729 12.2435 64.7519 12.2435 64.7519L21.4244 59.6892L25.4475 52.721C30.3406 44.2461 31.8966 46.6912 33.2839 57.2453C34.391 65.6689 34.3961 77.725 37.3813 79.4486C48.1981 85.6936 37.8319 40.6655 46.9399 38.7631C56.8409 36.6951 51.3187 84.6454 59.9846 82.9564C68.6505 81.2674 59.1725 36.5346 68.6855 36.0004C79.5771 35.3887 71.3205 76.9511 80.1758 80.3006C86.0525 82.5235 86.462 46.2637 86.462 46.2637C86.462 46.2637 99.4794 48.8113 94.1283 64.7519C94.1283 64.7519 88.2501 74.6667 95.6863 74.6667C103.122 74.6667 114.236 65.6428 111.536 45.3881C108.599 23.3625 90.6159 0 59.9846 0Z" fill="#ECA204"/>
</g>
<defs>
<filter id="filter0_d_281_167" x="2.27742e-08" y="0" width="115.95" height="91" filterUnits="userSpaceOnUse" color-interpolation-filters="sRGB">
<feFlood flood-opacity="0" result="BackgroundImageFix"/>
<feColorMatrix in="SourceAlpha" type="matrix" values="0 0 0 0 0 0 0 0 0 0 0 0 0 0 0 0 0 0 127 0" result="hardAlpha"/>
<feOffset dy="4"/>
<feGaussianBlur stdDeviation="2"/>
<feComposite in2="hardAlpha" operator="out"/>
<feColorMatrix type="matrix" values="0 0 0 0 0 0 0 0 0 0 0 0 0 0 0 0 0 0 0.25 0"/>
<feBlend mode="normal" in2="BackgroundImageFix" result="effect1_dropShadow_281_167"/>
<feBlend mode="normal" in="SourceGraphic" in2="effect1_dropShadow_281_167" result="shape"/>
</filter>
</defs>
</svg>
