<svg width="38" height="40" viewBox="0 0 38 40" fill="none" xmlns="http://www.w3.org/2000/svg">
<path d="M18.8164 0.5C19.8874 0.5 20.8645 0.727093 21.6387 1.09961L35.6709 8.79883C36.6341 9.349 37.1327 10.0883 37.1328 10.8193V29.1807C37.1327 29.9117 36.6341 30.651 35.6709 31.2012L21.6387 38.8994C20.8644 39.272 19.8876 39.5 18.8164 39.5C17.7428 39.5 16.7644 39.2706 15.9893 38.8965L1.96191 31.2012C0.998868 30.651 0.500154 29.9117 0.5 29.1807V10.8193C0.500152 10.0883 0.998865 9.34899 1.96191 8.79883L15.9893 1.10254C16.7643 0.728508 17.743 0.500023 18.8164 0.5Z" fill="black" stroke="#0F110C"/>
</svg>
