<svg width="226" height="38" viewBox="0 0 226 38" fill="none" xmlns="http://www.w3.org/2000/svg">
<path d="M25.6315 0C9.81935 0 1.63136 11.8842 0.205601 20.7801C-1.11056 28.9921 4.2494 35.6482 6.15039 33.2674C6.74674 32.5206 7.33852 31.6041 7.33852 31.6041C6.15039 30.8912 3.77415 29.6454 3.77415 29.6454L7.97745 27.3276L9.81935 24.1373C12.0595 20.2572 12.7719 21.3767 13.4071 26.2087C13.914 30.0653 13.9163 35.5849 15.283 36.374C20.2353 39.2332 15.4893 18.6179 19.6592 17.747C24.1922 16.8002 21.664 38.7533 25.6315 37.98C29.599 37.2068 25.2597 16.7267 29.615 16.4821C34.6015 16.202 30.8214 35.2306 34.8757 36.7641C37.5662 37.7818 37.7537 21.181 37.7537 21.181C37.7537 21.181 43.7135 22.3474 41.2636 29.6454C41.2636 29.6454 38.5723 34.1848 41.9769 34.1848C45.3814 34.1848 50.4694 30.0533 49.2332 20.7801C47.8889 10.6961 39.6555 0 25.6315 0Z" fill="#ECA204"/>
<path d="M77.7594 30.0833V8.11049C77.4363 8.11049 76.7685 8.17512 75.756 8.30437L69.4227 9.1122V7.46423H88.2935V9.1122L81.9601 8.30437C80.9476 8.17512 80.2798 8.11049 79.9567 8.11049V30.0833H77.7594Z" fill="#351904"/>
<path d="M93.5423 30.0833V7.46423H95.7396V17.9336H109.311V7.46423H111.508V30.0833H109.311V18.7092H95.7396V30.0833H93.5423Z" fill="#351904"/>
<path d="M119.923 30.0833V7.46423H129.778V9.04757L124.124 8.30437C123.133 8.17512 122.465 8.11049 122.12 8.11049V17.966C122.4 17.966 123.068 17.9336 124.124 17.869L129.423 17.5459V19.0323L124.124 18.7092C123.068 18.6445 122.4 18.6122 122.12 18.6122V29.4371C122.508 29.4371 123.186 29.3724 124.156 29.2432L129.875 28.5V30.0833H119.923Z" fill="#351904"/>
<path d="M145.357 30.0833V7.46423H147.554V17.9336H161.125V7.46423H163.323V30.0833H161.125V18.7092H147.554V30.0833H145.357Z" fill="#351904"/>
<path d="M171.737 30.0833V7.46423H173.935V30.0833H171.737Z" fill="#351904"/>
<path d="M179.173 7.46423H181.597L190.418 27.5629H190.612L198.012 7.46423H200.435L190.16 30.5357H189.449L179.173 7.46423Z" fill="#351904"/>
<path d="M205.47 30.0833V7.46423H215.326V9.04757L209.671 8.30437C208.68 8.17512 208.012 8.11049 207.668 8.11049V17.966C207.948 17.966 208.615 17.9336 209.671 17.869L214.97 17.5459V19.0323L209.671 18.7092C208.615 18.6445 207.948 18.6122 207.668 18.6122V29.4371C208.055 29.4371 208.734 29.3724 209.703 29.2432L215.423 28.5V30.0833H205.47Z" fill="#351904"/>
</svg>
