<svg width="1281" height="46" viewBox="0 0 1281 46" fill="none" xmlns="http://www.w3.org/2000/svg">
<path d="M0.5 20.6682H592C592 20.6682 593.821 44.8833 603.611 44.8833C613.402 44.8833 612.698 32.1397 612.698 32.1397C610.256 30.7148 605.371 28.2249 605.371 28.2249L614.012 23.5925L617.798 17.2161C622.403 9.4609 623.868 11.6982 625.173 21.356C626.215 29.0641 626.22 40.0964 629.03 41.6736C639.21 47.3883 629.454 6.18442 638.026 4.44362C647.345 2.55123 642.147 46.4288 650.304 44.8833C658.46 43.3378 649.539 2.40418 658.493 1.9153C668.744 1.35557 660.973 39.3881 669.307 42.4531C674.838 44.4872 675.224 11.3071 675.224 11.3071C675.224 11.3071 687.475 13.6382 682.439 28.2249C682.439 28.2249 677.64 41.6735 690.169 39.4612C700.256 37.6801 703 25.0415 703 25.0415V20.6682H1280.5" stroke="#ECA204" stroke-width="2"/>
</svg>
